<?xml version="1.0" encoding="UTF-8"?>
<svg width="48px" height="48px" viewBox="0 0 48 48" version="1.1" xmlns="http://www.w3.org/2000/svg">
  <g stroke="none" stroke-width="1" fill="none" fill-rule="evenodd">
    <circle fill="#4F46E5" cx="24" cy="24" r="24"/>
    <path d="M33,21 L27,21 L27,15 C27,14.4477153 26.5522847,14 26,14 L22,14 C21.4477153,14 21,14.4477153 21,15 L21,21 L15,21 C14.4477153,21 14,21.4477153 14,22 L14,26 C14,26.5522847 14.4477153,27 15,27 L21,27 L21,33 C21,33.5522847 21.4477153,34 22,34 L26,34 C26.5522847,34 27,33.5522847 27,33 L27,27 L33,27 C33.5522847,27 34,26.5522847 34,26 L34,22 C34,21.4477153 33.5522847,21 33,21 Z" fill="#FFFFFF"/>
  </g>
</svg>