<?xml version="1.0" encoding="UTF-8"?>
<svg width="32px" height="32px" viewBox="0 0 32 32" version="1.1" xmlns="http://www.w3.org/2000/svg">
  <g stroke="none" stroke-width="1" fill="none" fill-rule="evenodd">
    <circle fill="#4F46E5" cx="16" cy="16" r="16"/>
    <path d="M22,14 L18,14 L18,10 C18,9.44771525 17.5522847,9 17,9 L15,9 C14.4477153,9 14,9.44771525 14,10 L14,14 L10,14 C9.44771525,14 9,14.4477153 9,15 L9,17 C9,17.5522847 9.44771525,18 10,18 L14,18 L14,22 C14,22.5522847 14.4477153,23 15,23 L17,23 C17.5522847,23 18,22.5522847 18,22 L18,18 L22,18 C22.5522847,18 23,17.5522847 23,17 L23,15 C23,14.4477153 22.5522847,14 22,14 Z" fill="#FFFFFF"/>
  </g>
</svg>